# xmcd
#
# Track frame offsets:
#	150
#	15052
#	33742
#	43712
#	54680
#	72122
#	78105
#	86050
#	96267
#	109730
#	119857
#	130862
#	145565
#	158030
#	168497
#	178467
#	191427
#	200400
#	210867
#	219902
#	229375
#
# Disc length: 3165 seconds
#
# Revision: 0
# Processed by: cddbd v1.5.2PL0 Copyright (c) Steve Scherf et al.
# Submitted via: EasyCDDAExtractor 15.2.5.1
#
DISCID=230c5b15
DTITLE=함중아 - 디스코4 (2000) by oreum.com
DYEAR=2000
DGENRE=Disco
TTITLE0=페스티발
TTITLE1=후회
TTITLE2=해피데이
TTITLE3=니가 올래 내가 갈까
TTITLE4=바람같은 사람
TTITLE5=미움인지 그리움인지
TTITLE6=반문
TTITLE7=인생
TTITLE8=애시당초
TTITLE9=천년바위
TTITLE10=알면 병이요 모르면 약이요
TTITLE11=네박자
TTITLE12=마산항 옛친구
TTITLE13=남자인데
TTITLE14=사나이 참사랑
TTITLE15=인생도 (반환점)
TTITLE16=어느 구름에 비들었는지
TTITLE17=어리석은 여자
TTITLE18=뜬소문
TTITLE19=돌아와요 부산항에
TTITLE20=풍문으로 들었
EXTD=
EXTT0=
EXTT1=
EXTT2=
EXTT3=
EXTT4=
EXTT5=
EXTT6=
EXTT7=
EXTT8=
EXTT9=
EXTT10=
EXTT11=
EXTT12=
EXTT13=
EXTT14=
EXTT15=
EXTT16=
EXTT17=
EXTT18=
EXTT19=
EXTT20=
PLAYORDER=
